<svg width="960" height="960" viewBox="0 0 960 960" fill="none" xmlns="http://www.w3.org/2000/svg">
<path d="M387.386 621.56V338.44L632.596 480L387.386 621.56ZM480 230.95C342.454 230.95 230.952 342.453 230.952 479.998C230.952 617.543 342.455 729.048 480 729.048C617.546 729.048 729.048 617.545 729.048 480C728.825 342.544 617.456 231.174 480.021 230.952H480V230.95ZM480 764.076C323.107 764.076 195.92 636.89 195.92 479.996C195.92 323.102 323.106 195.92 480 195.92C636.89 195.92 764.078 323.106 764.078 480V480.03C764.078 636.905 636.905 764.078 480.028 764.078H480H480.003L480 764.076ZM480 0.135986C214.977 0.137986 0.135986 214.98 0.135986 480C0.135986 745.02 214.98 959.862 480 959.862C745.02 959.862 959.86 745.02 959.86 480C959.76 215.02 744.98 0.237985 480.01 0.137985H480V0.135986Z" fill="black"/>
</svg>
